<svg xmlns="http://www.w3.org/2000/svg" width="80" height="80" viewBox="0 0 80 80">
  <g fill="none" fill-rule="evenodd">
    <polygon fill="#E3E4E6" fill-rule="nonzero" points="7 21 7 59 40 78 73 59 73 21 40 2"/>
    <polygon fill="#D8EEF2" fill-rule="nonzero" points="7 21 40 40 40 2"/>
    <polygon fill="#EFF3F7" fill-rule="nonzero" points="40 40 7 21 7 59"/>
    <polygon fill="#E6E7E8" fill-rule="nonzero" points="40 40 7 59 40 78"/>
    <polygon fill="#D9DCDE" fill-rule="nonzero" points="40 40 40 78 73 59"/>
    <polygon fill="#84B8F0" fill-rule="nonzero" points="73 21 40 40 73 59"/>
    <polygon fill="#407FC7" fill-rule="nonzero" points="40 2 40 40 73 21"/>
    <polygon fill="#000" fill-opacity=".21" fill-rule="nonzero" points="7 21 7 59 40 78 73 59 73 21 40 2"/>
  </g>
</svg>
